<svg width="6" height="4" viewBox="0 0 6 4" fill="none" xmlns="http://www.w3.org/2000/svg">
<path d="M5.75784e-06 0.998752C-0.000247816 1.04261 0.0081587 1.08609 0.0247431 1.12669C0.0413275 1.1673 0.0657639 1.20422 0.0966506 1.23536L2.76271 3.90142C2.79369 3.93266 2.83055 3.95745 2.87116 3.97437C2.91177 3.99129 2.95533 4 2.99932 4C3.04332 4 3.08687 3.99129 3.12748 3.97437C3.16809 3.95745 3.20495 3.93266 3.23593 3.90142L5.90199 1.23536C5.96475 1.17261 6 1.0875 6 0.998752C6 0.910005 5.96475 0.824893 5.90199 0.76214C5.83924 0.699386 5.75413 0.664131 5.66538 0.664131C5.57663 0.664131 5.49152 0.699386 5.42877 0.76214L2.99932 3.19492L0.569876 0.76214C0.538895 0.730904 0.502037 0.706111 0.461426 0.689192C0.420816 0.672273 0.377257 0.663562 0.333263 0.663562C0.28927 0.663562 0.245711 0.672273 0.2051 0.689192C0.16449 0.706111 0.127631 0.730904 0.0966506 0.76214C0.0657639 0.793279 0.0413275 0.830209 0.0247431 0.870812C0.0081587 0.911415 -0.000247815 0.954893 5.75784e-06 0.998752Z" fill="#FF5A50"/>
</svg>
